<?xml version="1.0" encoding="UTF-8"?>
<svg version="1.1" xmlns="http://www.w3.org/2000/svg" width="179" height="179">
<path d="M0 0 C3.48592845 2.85016406 6.75288516 5.88256227 10 9 C10.78632813 9.72316406 11.57265625 10.44632813 12.3828125 11.19140625 C27.32964897 25.35290046 36.06817828 46.45940822 37 67 C37.03996094 67.66386719 37.07992187 68.32773438 37.12109375 69.01171875 C37.75252666 89.10614246 31.1368932 111.02018624 17.6875 126.25 C16.13587409 127.84399113 14.57295116 129.42704884 13 131 C12.16726562 131.91523438 11.33453125 132.83046875 10.4765625 133.7734375 C-3.84656104 149.10464011 -25.06807158 158.10335905 -46 159 C-60.12983482 159.42727839 -74.17528551 157.03419259 -87 151 C-88.08796875 150.49597656 -89.1759375 149.99195313 -90.296875 149.47265625 C-98.37547113 145.4428401 -104.62813364 140.35144371 -111 134 C-111.85980469 133.1440625 -112.71960938 132.288125 -113.60546875 131.40625 C-114.39566406 130.6121875 -115.18585938 129.818125 -116 129 C-116.86044922 128.15308594 -116.86044922 128.15308594 -117.73828125 127.2890625 C-133.65593216 110.46296005 -137.53046412 87.60581655 -137.28125 65.37109375 C-136.64581324 43.83931911 -126.62789956 25.31317053 -112 10 C-111.45988281 9.38511719 -110.91976562 8.77023438 -110.36328125 8.13671875 C-102.16659437 -0.84453766 -90.39786403 -7.14879625 -79 -11 C-77.86949219 -11.391875 -76.73898438 -11.78375 -75.57421875 -12.1875 C-50.33939989 -19.73436171 -21.53749219 -15.24564054 0 0 Z M-86.25 40.25 C-95.09651556 51.40867304 -99.0812 64.12232177 -97.5 78.25 C-95.2751061 90.82806684 -88.56417003 102.27364313 -78.36328125 109.99609375 C-66.2788026 118.10297552 -54.46795976 120.29667738 -40.13671875 117.71875 C-27.94550185 114.92524575 -18.31741801 108.15701306 -11 98 C-8.12714831 93.1325259 -5.93508269 88.60054844 -5 83 C-8.24931927 82.82544979 -11.49743448 82.71908247 -14.75 82.625 C-15.67039062 82.57472656 -16.59078125 82.52445313 -17.5390625 82.47265625 C-20.15112682 82.41587224 -22.44683396 82.43774633 -25 83 C-27.55612921 85.71395109 -27.55612921 85.71395109 -29 89 C-34.40967133 95.05560224 -41.48474574 98.43559322 -49.5 99.4375 C-58.34428692 98.33196414 -65.43305217 95.73285238 -71.6875 89.1875 C-77.55773608 81.09609351 -78.0910202 73.93347915 -77 64 C-74.98348271 57.15280352 -71.10451293 51.75392462 -65 48 C-59.97637948 45.46998821 -55.79120647 44.44608163 -50.125 44.5 C-49.42391113 44.50572021 -48.72282227 44.51144043 -48.00048828 44.51733398 C-40.83075501 44.76373653 -36.23405721 46.79400403 -31.19921875 51.78515625 C-28.87755922 54.39494536 -26.93868263 57.09197606 -25 60 C-22.87305335 60.41527124 -22.87305335 60.41527124 -20.4296875 60.29296875 C-19.53378906 60.28330078 -18.63789062 60.27363281 -17.71484375 60.26367188 C-16.30912109 60.2259668 -16.30912109 60.2259668 -14.875 60.1875 C-13.93011719 60.17396484 -12.98523438 60.16042969 -12.01171875 60.14648438 C-9.67391221 60.11106306 -7.33723763 60.06167271 -5 60 C-7.62090457 48.39374904 -14.21007642 38.85473626 -24 32 C-44.45716334 19.91899803 -69.75972429 22.43879782 -86.25 40.25 Z " fill="#2BB252" transform="translate(141,18)"/>
<path d="M0 0 C0 0.33 0 0.66 0 1 C-0.98842896 1.02187378 -0.98842896 1.02187378 -1.99682617 1.04418945 C-25.49217922 0.53970266 -25.49217922 0.53970266 -46 10 C-52.46153846 13 -52.46153846 13 -55 13 C-55.33 14.98 -55.66 16.96 -56 19 C-57.65 18.67 -59.3 18.34 -61 18 C-61.37125 18.598125 -61.7425 19.19625 -62.125 19.8125 C-64 22 -64 22 -67.0625 23.25 C-70.08780651 24.64688874 -70.08780651 24.64688874 -70.76171875 26.9296875 C-71.21008333 28.94553464 -71.60758427 30.97251871 -72 33 C-72.99 33.495 -72.99 33.495 -74 34 C-74.66 34.99 -75.32 35.98 -76 37 C-77.66666667 37.33333333 -79.33333333 37.66666667 -81 38 C-81.66 38.99 -82.32 39.98 -83 41 C-81.68 41 -80.36 41 -79 41 C-79 42.32 -79 43.64 -79 45 C-82.465 45.495 -82.465 45.495 -86 46 C-86.12375 46.804375 -86.2475 47.60875 -86.375 48.4375 C-86.58125 49.283125 -86.7875 50.12875 -87 51 C-87.99 51.495 -87.99 51.495 -89 52 C-88.67 52.99 -88.34 53.98 -88 55 C-88 55.99 -88 56.98 -88 58 C-88.66 58 -89.32 58 -90 58 C-93.59131047 62.93805189 -95.20469876 67.85066302 -94.625 73.9375 C-94.41875 74.948125 -94.2125 75.95875 -94 77 C-95.485 77.495 -95.485 77.495 -97 78 C-97.05399736 79.45792884 -97.09279177 80.91642712 -97.125 82.375 C-97.14820312 83.18710938 -97.17140625 83.99921875 -97.1953125 84.8359375 C-97.21370051 87.21342243 -97.21370051 87.21342243 -95 89 C-95.495 89.99 -95.495 89.99 -96 91 C-95.835 91.969375 -95.67 92.93875 -95.5 93.9375 C-94.65473699 98.98767901 -95.40664538 103.95192145 -96 109 C-102.47649321 97.77407844 -100.47937052 77.33425503 -97.3125 65.1875 C-92.58804266 49.32918166 -85.42126677 36.95631711 -74 25 C-73.45988281 24.38511719 -72.91976562 23.77023438 -72.36328125 23.13671875 C-64.16659437 14.15546234 -52.39786403 7.85120375 -41 4 C-39.86949219 3.608125 -38.73898438 3.21625 -37.57421875 2.8125 C-25.20076978 -0.88797072 -12.81173514 -0.39845109 0 0 Z " fill="#50C45D" transform="translate(103,3)"/>
<path d="M0 0 C6.20897422 7.63487237 8.30569121 17.24572898 9.8125 26.75 C9.93625 27.52931885 10.06 28.3086377 10.1875 29.11157227 C13.25542018 50.45843158 7.75158992 72.0254211 -4 90 C-6.76262382 93.60408355 -9.78417643 96.79968683 -13 100 C-13.93689087 100.98117178 -14.87170334 101.96433138 -15.8046875 102.94921875 C-20.23976508 107.55806009 -24.06033535 111.3649804 -30 114 C-30 110.7 -30 107.4 -30 104 C-29.01 103.505 -29.01 103.505 -28 103 C-27.01 103.66 -26.02 104.32 -25 105 C-24.01 104.01 -24.01 104.01 -23 103 C-21.68 103 -20.36 103 -19 103 C-16.60549147 101.52311011 -16.60549147 101.52311011 -15 99 C-14.83322718 95.41656024 -14.83322718 95.41656024 -15 92 C-14.01 91.01 -14.01 91.01 -13 90 C-12.67 89.34 -12.34 88.68 -12 88 C-10.35 88.33 -8.7 88.66 -7 89 C-5.18698242 84.56906802 -5.18698242 84.56906802 -6 80 C-3.525 79.505 -3.525 79.505 -1 79 C-0.51787786 77.43840941 -0.03944127 75.87568072 0.4375 74.3125 C0.70433594 73.44238281 0.97117188 72.57226562 1.24609375 71.67578125 C2.26705987 68.05214504 3 64.77241008 3 61 C3.66 61 4.32 61 5 61 C5 59.68 5 58.36 5 57 C5.495 56.01 5.495 56.01 6 55 C6.66 55 7.32 55 8 55 C8.05859888 51.16673205 8.09379643 47.33358112 8.125 43.5 C8.14175781 42.42234375 8.15851563 41.3446875 8.17578125 40.234375 C8.36630971 29.32074866 8.36630971 29.32074866 3.375 20 C2.59125 19.34 1.8075 18.68 1 18 C1.33 17.01 1.66 16.02 2 15 C2.66 15 3.32 15 4 15 C3.16666667 12.83333333 3.16666667 12.83333333 1 12 C1 9.69 1 7.38 1 5 C0.34 4.67 -0.32 4.34 -1 4 C-0.67 2.68 -0.34 1.36 0 0 Z M-11 91 C-10 93 -10 93 -10 93 Z " fill="#178D53" transform="translate(167,49)"/>
<path d="M0 0 C3 0 6 0 9 0 C8.62875 0.9075 8.2575 1.815 7.875 2.75 C6.87239207 6.4739723 7.30150305 6.81531823 9 10 C8.125 12.125 8.125 12.125 7 14 C7 14.66 7 15.32 7 16 C10.3 16 13.6 16 17 16 C16.690625 17.2065625 16.690625 17.2065625 16.375 18.4375 C15.89918072 22.95778317 16.83064128 26.65114526 18 31 C18.78375 31.144375 19.5675 31.28875 20.375 31.4375 C23 32 23 32 25 33 C25.12375 34.134375 25.2475 35.26875 25.375 36.4375 C25.58125 37.613125 25.7875 38.78875 26 40 C27.93597032 41.51294288 27.93597032 41.51294288 30 42 C30.33 41.34 30.66 40.68 31 40 C31.99 42.31 32.98 44.62 34 47 C34.58007812 47.03738281 35.16015625 47.07476562 35.7578125 47.11328125 C40.72704344 47.53148385 44.80711714 48.064982 49 51 C49.65625 53.609375 49.65625 53.609375 50 56 C59.66589221 59.54686801 68.7095568 61.93765841 79 63 C79 63.33 79 63.66 79 64 C62.46403788 65.18114015 44.16809776 58.00831891 31.3125 47.8125 C29.86641906 46.55143952 28.42755216 45.28199783 27 44 C25.989375 43.236875 24.97875 42.47375 23.9375 41.6875 C12.86453252 31.55691273 3.91758303 17.56206848 0 3 C0 2.01 0 1.02 0 0 Z " fill="#51CA59" transform="translate(7,112)"/>
<path d="M0 0 C0.99 0 1.98 0 3 0 C3 0.66 3 1.32 3 2 C5.64 1.67 8.28 1.34 11 1 C8 3 8 3 5.328125 4.4453125 C-6.7723446 11.04836063 -13.5346012 19.59391755 -18.3125 32.5625 C-21.11774182 46.5887091 -19.3210672 57.64132691 -12.4609375 70.1015625 C-11 73 -11 73 -11 76 C-12.65 75.67 -14.3 75.34 -16 75 C-15.938125 74.071875 -15.87625 73.14375 -15.8125 72.1875 C-15.71722131 69.05517266 -15.71722131 69.05517266 -17.3125 67.125 C-19.07800472 65.7226499 -19.07800472 65.7226499 -22 66 C-25 62.66666667 -25 62.66666667 -25 60 C-24.34 60 -23.68 60 -23 60 C-23.495 58.515 -23.495 58.515 -24 57 C-24.06712729 55.66819456 -24.08522675 54.3333024 -24.0625 53 C-24.05347656 52.319375 -24.04445312 51.63875 -24.03515625 50.9375 C-24.02355469 50.298125 -24.01195312 49.65875 -24 49 C-24 48.01 -24 47.02 -24 46 C-23.68578929 43.99690671 -23.3548954 41.99628664 -23 40 C-22.34 40 -21.68 40 -21 40 C-21.226875 39.154375 -21.45375 38.30875 -21.6875 37.4375 C-22.08257062 33.09172317 -20.91122343 30.89070483 -19 27 C-18.47195822 25.77391275 -17.95094613 24.54477072 -17.4375 23.3125 C-16.35852182 20.82615897 -15.24946464 18.40281661 -14 16 C-14.33 15.67 -14.66 15.34 -15 15 C-15.33 14.01 -15.66 13.02 -16 12 C-14.02 12 -12.04 12 -10 12 C-9.896875 11.4225 -9.79375 10.845 -9.6875 10.25 C-8.90207202 7.67950842 -7.69495803 6.06342716 -6 4 C-5.34 4.33 -4.68 4.66 -4 5 C-1.88316159 4.10836423 -1.88316159 4.10836423 0 3 C0 2.01 0 1.02 0 0 Z " fill="#45C058" transform="translate(64,44)"/>
<path d="M0 0 C0.625 1.8125 0.625 1.8125 1 4 C0.01 5.485 0.01 5.485 -1 7 C0.32 7 1.64 7 3 7 C3 8.32 3 9.64 3 11 C0.69 11.33 -1.62 11.66 -4 12 C-4.12375 12.804375 -4.2475 13.60875 -4.375 14.4375 C-4.58125 15.283125 -4.7875 16.12875 -5 17 C-5.66 17.33 -6.32 17.66 -7 18 C-6.67 18.99 -6.34 19.98 -6 21 C-6 21.99 -6 22.98 -6 24 C-6.66 24 -7.32 24 -8 24 C-11.59131047 28.93805189 -13.20469876 33.85066302 -12.625 39.9375 C-12.41875 40.948125 -12.2125 41.95875 -12 43 C-13.485 43.495 -13.485 43.495 -15 44 C-15.05399736 45.45792884 -15.09279177 46.91642712 -15.125 48.375 C-15.14820313 49.18710938 -15.17140625 49.99921875 -15.1953125 50.8359375 C-15.21370051 53.21342243 -15.21370051 53.21342243 -13 55 C-13.33 55.66 -13.66 56.32 -14 57 C-13.835 57.969375 -13.67 58.93875 -13.5 59.9375 C-12.65473699 64.98767901 -13.40664538 69.95192145 -14 75 C-20.47649321 63.77407844 -18.47937052 43.33425503 -15.3125 31.1875 C-12.14579791 20.55801047 -8.05147826 8.05147826 0 0 Z " fill="#62C364" transform="translate(21,37)"/>
<path d="M0 0 C1.04837036 0.00531738 1.04837036 0.00531738 2.11791992 0.01074219 C8.06725112 0.20120912 12.62732757 1.5709988 17.125 5.5 C18.16358322 6.803504 19.17434032 8.13105006 20.125 9.5 C18.1875 9.125 18.1875 9.125 16.125 8.5 C15.63 7.51 15.63 7.51 15.125 6.5 C6.6676066 1.11087025 -2.3785787 1.81174732 -11.875 3.5 C-12.205 4.49 -12.535 5.48 -12.875 6.5 C-14.5385479 7.17441131 -16.20566942 7.8400321 -17.875 8.5 C-21.71170879 11.65964253 -24.37028216 15.49825707 -25.20898438 20.48632812 C-25.38942481 22.61790473 -25.4948403 24.73695343 -25.5625 26.875 C-25.59666016 27.61105469 -25.63082031 28.34710938 -25.66601562 29.10546875 C-25.74772789 30.90313853 -25.81305781 32.70154046 -25.875 34.5 C-24.225 34.83 -22.575 35.16 -20.875 35.5 C-20.58625 36.4075 -20.2975 37.315 -20 38.25 C-19.03121535 41.39423119 -19.03121535 41.39423119 -17.625 43.625 C-17.3775 44.24375 -17.13 44.8625 -16.875 45.5 C-17.828125 47.6171875 -17.828125 47.6171875 -18.875 49.5 C-26.50458727 41.37658831 -28.5473694 35.4629249 -28.28125 24.23046875 C-27.36495317 15.81639694 -23.46158349 10.36137967 -17.1328125 4.97265625 C-11.63804088 1.38869621 -6.51481154 -0.05966088 0 0 Z " fill="#45A15D" transform="translate(90.875,61.5)"/>
<path d="M0 0 C9.83294601 4.13192944 16.54908046 9.62306122 24 17 C24.75410156 17.69351562 25.50820312 18.38703125 26.28515625 19.1015625 C31.55901496 24.04008915 35.57157087 29.63597843 39 36 C39 36.66 39 37.32 39 38 C37.68 38 36.36 38 35 38 C32.27388801 35.27388801 31.52320367 32.76706644 31 29 C28.50935112 28.31292445 26.62113708 28 24 28 C24 25.69 24 23.38 24 21 C23.071875 20.835 22.14375 20.67 21.1875 20.5 C20.135625 20.005 19.08375 19.51 18 19 C17.31525811 17.04359461 16.63676994 15.08391946 16.03125 13.1015625 C13.51895164 7.98180297 7.51110815 5.58323473 2.4375 3.625 C1.633125 3.41875 0.82875 3.2125 0 3 C0 2.01 0 1.02 0 0 Z M18 15 C19 17 19 17 19 17 Z " fill="#139653" transform="translate(128,11)"/>
<path d="M0 0 C1.61189613 4.02974033 0.22409257 6.98769658 -1 11 C-1.020625 12.19625 -1.04125 13.3925 -1.0625 14.625 C-2 18 -2 18 -3.88671875 19.33984375 C-5.48174352 20.16503838 -7.08912316 20.9667199 -8.70703125 21.74609375 C-13.0586747 24.12578293 -15.28658291 27.92987437 -18 32 C-18.66 32 -19.32 32 -20 32 C-20 32.66 -20 33.32 -20 34 C-20.84304687 34.13277344 -21.68609375 34.26554687 -22.5546875 34.40234375 C-23.65039062 34.57894531 -24.74609375 34.75554687 -25.875 34.9375 C-26.96554688 35.11152344 -28.05609375 35.28554687 -29.1796875 35.46484375 C-31.93821546 35.85551159 -31.93821546 35.85551159 -34 37 C-36.04055005 37.07065617 -38.08334257 37.08421976 -40.125 37.0625 C-41.22070312 37.05347656 -42.31640625 37.04445312 -43.4453125 37.03515625 C-44.28835937 37.02355469 -45.13140625 37.01195312 -46 37 C-46 36.67 -46 36.34 -46 36 C-44.76636719 35.85304688 -44.76636719 35.85304688 -43.5078125 35.703125 C-29.41512141 33.81542042 -18.48815518 29.20478781 -9.33984375 17.953125 C-6.76800046 14.20408231 -4.90563538 10.11536151 -3 6 C-2.40063303 4.78927871 -1.79735957 3.58047008 -1.1875 2.375 C-0.795625 1.59125 -0.40375 0.8075 0 0 Z " fill="#2F9756" transform="translate(137,100)"/>
<path d="M0 0 C2.32688672 1.16344336 4.60831668 2.34383117 6.875 3.625 C9.88863667 5.20136931 9.88863667 5.20136931 13 5 C16.79876992 5 18.86334916 5.88458431 22 8 C22.66796875 10.61328125 22.66796875 10.61328125 23 13 C32.66589221 16.54686801 41.7095568 18.93765841 52 20 C52 20.33 52 20.66 52 21 C34.1412828 22.27562266 15.00089555 13.96914746 1.58984375 2.56640625 C1.06519531 2.04949219 0.54054687 1.53257812 0 1 C0 0.67 0 0.34 0 0 Z " fill="#4FB162" transform="translate(34,155)"/>
<path d="M0 0 C3 0 6 0 9 0 C8.62875 0.9075 8.2575 1.815 7.875 2.75 C6.87239207 6.4739723 7.30150305 6.81531823 9 10 C8.64292969 10.61875 8.28585937 11.2375 7.91796875 11.875 C7.61503906 12.57625 7.31210938 13.2775 7 14 C7.81789322 16.01619445 7.81789322 16.01619445 9.3125 17.875 C11.64251208 21.25605013 12.68715336 23.82871143 13 28 C9.71782745 24.94191619 7.90964427 21.35215762 5.9375 17.375 C5.58042969 16.66021484 5.22335938 15.94542969 4.85546875 15.20898438 C2.41744077 10.19192306 0.79312073 5.55184513 0 0 Z " fill="#58CD5B" transform="translate(7,112)"/>
<path d="M0 0 C1.10859375 0.00322266 2.2171875 0.00644531 3.359375 0.00976562 C4.50148437 0.01814453 5.64359375 0.02652344 6.8203125 0.03515625 C8.56828125 0.04192383 8.56828125 0.04192383 10.3515625 0.04882812 C13.21619895 0.06056844 16.08072883 0.07699055 18.9453125 0.09765625 C18.9453125 0.42765625 18.9453125 0.75765625 18.9453125 1.09765625 C17.95688354 1.11953003 17.95688354 1.11953003 16.94848633 1.1418457 C-6.54686672 0.63735891 -6.54686672 0.63735891 -27.0546875 10.09765625 C-31.97638262 12.46006991 -36.73739635 13.88494072 -42.0546875 15.09765625 C-33.11340222 4.66615676 -13.03308624 -0.06718086 0 0 Z " fill="#4BAB5F" transform="translate(84.0546875,2.90234375)"/>
<path d="M0 0 C0.33 0 0.66 0 1 0 C1 3.96 1 7.92 1 12 C2.65 12.33 4.3 12.66 6 13 C6.28875 13.9075 6.5775 14.815 6.875 15.75 C7.84378465 18.89423119 7.84378465 18.89423119 9.25 21.125 C9.4975 21.74375 9.745 22.3625 10 23 C9.046875 25.1171875 9.046875 25.1171875 8 27 C7.03644756 25.92130607 6.07938583 24.83681257 5.125 23.75 C4.59132813 23.14671875 4.05765625 22.5434375 3.5078125 21.921875 C-0.1123031 17.30763439 -0.25749856 13.51878362 -0.125 7.75 C-0.11597656 7.00492187 -0.10695312 6.25984375 -0.09765625 5.4921875 C-0.07418358 3.66131941 -0.03831525 1.83061762 0 0 Z " fill="#3EB956" transform="translate(64,84)"/>
<path d="M0 0 C1.61189613 4.02974033 0.22409257 6.98769658 -1 11 C-1.0825 12.2375 -1.165 13.475 -1.25 14.75 C-2 18 -2 18 -4.9375 19.9375 C-8 21 -8 21 -10 21 C-8.68100742 17.59006989 -7.21583591 14.32281661 -5.5625 11.0625 C-5.12679687 10.20011719 -4.69109375 9.33773437 -4.2421875 8.44921875 C-3.62730469 7.23685547 -3.62730469 7.23685547 -3 6 C-2.39488058 4.79214351 -1.79051779 3.58390709 -1.1875 2.375 C-0.795625 1.59125 -0.40375 0.8075 0 0 Z " fill="#269054" transform="translate(137,100)"/>
<path d="M0 0 C5.66666667 0 11.33333333 0 17 0 C17 0.66 17 1.32 17 2 C17.99 2.33 18.98 2.66 20 3 C21 4 21 4 22 7 C14.13867147 5.97343476 7.22389676 4.29230693 0 1 C0 0.67 0 0.34 0 0 Z " fill="#39B956" transform="translate(58,168)"/>
<path d="M0 0 C1.4540625 0.0309375 1.4540625 0.0309375 2.9375 0.0625 C3.5975 1.3825 4.2575 2.7025 4.9375 4.0625 C2.1711466 5.40527732 -0.60126211 6.73505228 -3.375 8.0625 C-4.16068359 8.4440625 -4.94636719 8.825625 -5.75585938 9.21875 C-6.51318359 9.5796875 -7.27050781 9.940625 -8.05078125 10.3125 C-8.74727783 10.64765625 -9.44377441 10.9828125 -10.16137695 11.328125 C-12.0625 12.0625 -12.0625 12.0625 -15.0625 12.0625 C-15.0625 11.4025 -15.0625 10.7425 -15.0625 10.0625 C-14.258125 9.93875 -13.45375 9.815 -12.625 9.6875 C-11.779375 9.48125 -10.93375 9.275 -10.0625 9.0625 C-9.7325 8.4025 -9.4025 7.7425 -9.0625 7.0625 C-6.5 6.4375 -6.5 6.4375 -4.0625 6.0625 C-4.0625 5.4025 -4.0625 4.7425 -4.0625 4.0625 C-3.4025 4.0625 -2.7425 4.0625 -2.0625 4.0625 C-2.0625 3.4025 -2.0625 2.7425 -2.0625 2.0625 C-2.7225 1.7325 -3.3825 1.4025 -4.0625 1.0625 C-3.0625 0.0625 -3.0625 0.0625 0 0 Z " fill="#209D52" transform="translate(132.0625,159.9375)"/>
<path d="M0 0 C0.680625 0.515625 1.36125 1.03125 2.0625 1.5625 C5.83179052 3.40704642 7.97067138 2.91230082 12 2 C12.66 1.67 13.32 1.34 14 1 C16.125 1.4375 16.125 1.4375 18 2 C18 2.99 18 3.98 18 5 C11.4 5 4.8 5 -2 5 C-2.33 5.66 -2.66 6.32 -3 7 C-3 6.34 -3 5.68 -3 5 C-3.99 4.67 -4.98 4.34 -6 4 C-5.34 4 -4.68 4 -4 4 C-4 3.34 -4 2.68 -4 2 C-2.68 2.33 -1.36 2.66 0 3 C0 2.01 0 1.02 0 0 Z " fill="#21A258" transform="translate(118,96)"/>
<path d="M0 0 C2.31 0.33 4.62 0.66 7 1 C-1.53792716 6.69195144 -14.08292795 6.15995278 -24 6 C-24 5.34 -24 4.68 -24 4 C-23.30849854 3.9498877 -22.61699707 3.89977539 -21.90454102 3.84814453 C-18.78970714 3.61691118 -15.67618856 3.37115591 -12.5625 3.125 C-10.92958008 3.00705078 -10.92958008 3.00705078 -9.26367188 2.88671875 C-7.71196289 2.76103516 -7.71196289 2.76103516 -6.12890625 2.6328125 C-5.17056885 2.55949707 -4.21223145 2.48618164 -3.22485352 2.41064453 C-2.12355103 2.20737549 -2.12355103 2.20737549 -1 2 C-0.67 1.34 -0.34 0.68 0 0 Z " fill="#3A9C5C" transform="translate(110,171)"/>
<path d="M0 0 C0.4846875 0.37511719 0.969375 0.75023438 1.46875 1.13671875 C9.65585979 7.38726219 17.16264791 11.76307716 27 15 C27 15.33 27 15.66 27 16 C25.02 16 23.04 16 21 16 C21 15.34 21 14.68 21 14 C20.32324219 14.07476562 19.64648438 14.14953125 18.94921875 14.2265625 C15.02253487 13.92490996 12.15814608 12.2977851 8.8125 10.375 C8.18408203 10.04371094 7.55566406 9.71242187 6.90820312 9.37109375 C3.57598725 7.48224411 2.12086918 6.2775024 0.57421875 2.7265625 C0.38472656 1.82679687 0.19523437 0.92703125 0 0 Z " fill="#49A95C" transform="translate(55,121)"/>
<path d="M0 0 C0 3.60200435 -0.96723299 4.88001379 -2.8125 7.9375 C-6.10093851 13.75251656 -7.70286931 19.48021152 -9 26 C-9.33 26 -9.66 26 -10 26 C-11.29211137 20.24423116 -10.65966856 17.22434896 -8 12 C-7.54625 10.989375 -7.0925 9.97875 -6.625 8.9375 C-4.74103426 5.53186962 -2.56915311 2.91633596 0 0 Z " fill="#54B363" transform="translate(53,59)"/>
<path d="M0 0 C0.66 0.66 1.32 1.32 2 2 C0.8905928 5.48670834 -0.26337666 8.77484237 -2 12 C-2.99 11.67 -3.98 11.34 -5 11 C-5.3125 7.75 -5.3125 7.75 -5 4 C-2.5 1.5625 -2.5 1.5625 0 0 Z " fill="#44C554" transform="translate(46,64)"/>
<path d="M0 0 C3.875 3.75 3.875 3.75 5 6 C11.6 6.33 18.2 6.66 25 7 C24.67 7.66 24.34 8.32 24 9 C16.74 8.67 9.48 8.34 2 8 C0 2 0 2 0 0 Z " fill="#2B9B57" transform="translate(111,71)"/>
<path d="M0 0 C1.85309794 2.7796469 3.50128708 5.58202315 5.125 8.5 C5.66382813 9.4590625 6.20265625 10.418125 6.7578125 11.40625 C8 14 8 14 8 17 C6.35 16.67 4.7 16.34 3 16 C3.0928125 14.63875 3.0928125 14.63875 3.1875 13.25 C3.30154186 10.01807891 3.30154186 10.01807891 1.5 8 C-0.53362803 5.28849596 -0.22509772 3.30143322 0 0 Z " fill="#4DB45E" transform="translate(45,103)"/>
<path d="M0 0 C0.99 0 1.98 0 3 0 C3 0.66 3 1.32 3 2 C5.64 1.67 8.28 1.34 11 1 C8.33665788 2.77556142 5.65774807 4.50086607 2.9375 6.1875 C2.05964844 6.73792969 1.18179688 7.28835937 0.27734375 7.85546875 C-0.47417969 8.23316406 -1.22570313 8.61085938 -2 9 C-2.66 8.67 -3.32 8.34 -4 8 C-2.68 7.34 -1.36 6.68 0 6 C0 4.02 0 2.04 0 0 Z " fill="#4AAE5C" transform="translate(64,44)"/>
<path d="M0 0 C0.99 0.33 1.98 0.66 3 1 C1.68 1.33 0.36 1.66 -1 2 C-0.67 1.34 -0.34 0.68 0 0 Z M-1 3 C-1.99 4.485 -1.99 4.485 -3 6 C-2.67 6.66 -2.34 7.32 -2 8 C-3.98 8.33 -5.96 8.66 -8 9 C-7.625 6.0625 -7.625 6.0625 -7 3 C-4.50907189 1.75453595 -3.58919267 2.2232422 -1 3 Z " fill="#3CBD54" transform="translate(66,7)"/>
<path d="M0 0 C4.81630377 5.70821187 9.42512592 11.33501231 10 19 C6.89163031 16.32201996 5.23862093 13.08573456 3.3125 9.5 C2.68988281 8.3553125 2.06726563 7.210625 1.42578125 6.03125 C0 3 0 3 0 0 Z " fill="#62BB67" transform="translate(10,121)"/>
<path d="M0 0 C0.33 0.66 0.66 1.32 1 2 C1.66 2 2.32 2 3 2 C3 3.32 3 4.64 3 6 C3.515625 6.45375 4.03125 6.9075 4.5625 7.375 C5.036875 7.91125 5.51125 8.4475 6 9 C5.6875 12.1875 5.6875 12.1875 5 15 C2.26769342 11.87736391 1.00151461 8.66022982 -0.3515625 4.8046875 C-0.98308528 2.93514048 -0.98308528 2.93514048 -2 1 C-1.34 0.67 -0.68 0.34 0 0 Z " fill="#17A051" transform="translate(131,57)"/>
<path d="M0 0 C6.58508995 3.10074624 12.67938769 5.97497726 18 11 C14.42042166 11 13.53689395 10.18207543 10.6875 8.125 C7.21585522 5.71980819 4.13430012 4.06007695 0 3 C0 2.01 0 1.02 0 0 Z " fill="#2D8E59" transform="translate(128,11)"/>
<path d="M0 0 C2.625 0.25 2.625 0.25 5 1 C5.99 0.67 6.98 0.34 8 0 C8 1.32 8 2.64 8 4 C5.69 3.67 3.38 3.34 1 3 C1 3.66 1 4.32 1 5 C-0.98 5 -2.96 5 -5 5 C-2.8125 2.4375 -2.8125 2.4375 0 0 Z " fill="#21AA4F" transform="translate(109,168)"/>
<path d="M0 0 C2.97 0.495 2.97 0.495 6 1 C6.33 2.32 6.66 3.64 7 5 C4.6875 5.6875 4.6875 5.6875 2 6 C0.1875 4.5625 0.1875 4.5625 -1 3 C-0.67 2.01 -0.34 1.02 0 0 Z " fill="#45BE5A" transform="translate(50,162)"/>
<path d="M0 0 C-2 2 -2 2 -3.9453125 2.1953125 C-5.96354167 2.13020833 -7.98177083 2.06510417 -10 2 C-10 2.66 -10 3.32 -10 4 C-12.97 3.505 -12.97 3.505 -16 3 C-12.01339411 -0.98660589 -5.26886217 -1.69963296 0 0 Z " fill="#20AA51" transform="translate(119,134)"/>
<path d="M0 0 C0.99 0.66 1.98 1.32 3 2 C3 3.32 3 4.64 3 6 C2.34 6 1.68 6 1 6 C-0.6446674 8.46326712 -0.6446674 8.46326712 -2 11 C-2.95465783 8.83032311 -3.14401212 7.43671207 -2.3984375 5.17578125 C-1.64129615 3.4315257 -0.82390802 1.71372869 0 0 Z " fill="#54D157" transform="translate(12,55)"/>
<path d="M0 0 C0.66 0.33 1.32 0.66 2 1 C0.66536458 2.46484375 -0.66927083 3.9296875 -2.00390625 5.39453125 C-2.33261719 5.92433594 -2.66132812 6.45414062 -3 7 C-2.67 7.99 -2.34 8.98 -2 10 C-2.598125 10.28875 -3.19625 10.5775 -3.8125 10.875 C-6.19327792 12.04742026 -6.19327792 12.04742026 -9 14 C-6.90858792 8.36927518 -4.41603145 4.11147756 0 0 Z " fill="#3AB955" transform="translate(74,68)"/>
<path d="M0 0 C1.32 0 2.64 0 4 0 C4 0.66 4 1.32 4 2 C3.01 2.495 3.01 2.495 2 3 C2 4.32 2 5.64 2 7 C0.35 7.66 -1.3 8.32 -3 9 C-3.125 6.625 -3.125 6.625 -3 4 C-2.34 3.34 -1.68 2.68 -1 2 C-0.67 1.34 -0.34 0.68 0 0 Z " fill="#0C984D" transform="translate(155,137)"/>
<path d="M0 0 C1.1875 1.6875 1.1875 1.6875 1.1875 3.6875 C2.1775 3.3575 3.1675 3.0275 4.1875 2.6875 C5.1775 3.6775 6.1675 4.6675 7.1875 5.6875 C1.48040936 5.22161505 -1.97189723 3.74992216 -6.8125 0.6875 C-6.8125 0.3575 -6.8125 0.0275 -6.8125 -0.3125 C-2.28877737 -1.65739051 -2.28877737 -1.65739051 0 0 Z " fill="#42A95D" transform="translate(79.8125,111.3125)"/>
<path d="M0 0 C0.66 0.33 1.32 0.66 2 1 C1.875 3.3125 1.875 3.3125 1 6 C-3.86206897 9 -3.86206897 9 -7 9 C-7 8.34 -7 7.68 -7 7 C-6.38125 6.938125 -5.7625 6.87625 -5.125 6.8125 C-2.73182415 6.17775641 -2.73182415 6.17775641 -1.8125 3.5 C-1.544375 2.675 -1.27625 1.85 -1 1 C-0.67 0.67 -0.34 0.34 0 0 Z " fill="#17A24E" transform="translate(134,112)"/>
<path d="M0 0 C0.99 0.33 1.98 0.66 3 1 C3.309375 1.639375 3.61875 2.27875 3.9375 2.9375 C5.2342338 5.45468915 6.4221737 5.96886948 9 7 C8.34 8.32 7.68 9.64 7 11 C6.01216806 9.92456217 5.03506057 8.83926783 4.0625 7.75 C3.51722656 7.14671875 2.97195312 6.5434375 2.41015625 5.921875 C0.93787201 3.91532695 0.42470811 2.42997551 0 0 Z " fill="#46AA5F" transform="translate(65,100)"/>
<path d="M0 0 C2.00293347 3.00440021 2.49271626 4.70993945 3.125 8.1875 C3.29257813 9.08855469 3.46015625 9.98960938 3.6328125 10.91796875 C3.75398437 11.60503906 3.87515625 12.29210937 4 13 C1.66666667 10.66666667 -0.66666667 8.33333333 -3 6 C-2.67 5.01 -2.34 4.02 -2 3 C-1.34 3 -0.68 3 0 3 C0 2.01 0 1.02 0 0 Z " fill="#07914E" transform="translate(171,61)"/>
<path d="M0 0 C3.3125 0.1875 3.3125 0.1875 7 1 C8.75 3.375 8.75 3.375 10 6 C11.58245275 7.75149165 11.58245275 7.75149165 13 9 C12.67 9.66 12.34 10.32 12 11 C10.56145942 9.73034469 9.12420873 8.45922782 7.6875 7.1875 C6.88699219 6.47980469 6.08648437 5.77210937 5.26171875 5.04296875 C3.45016838 3.40662878 1.70318297 1.74727832 0 0 Z " fill="#2E9857" transform="translate(114,48)"/>
<path d="M0 0 C-0.33 1.98 -0.66 3.96 -1 6 C-1.763125 5.835 -2.52625 5.67 -3.3125 5.5 C-6.03596236 4.90854604 -6.03596236 4.90854604 -9 5 C-2.87096774 0 -2.87096774 0 0 0 Z " fill="#45C459" transform="translate(48,16)"/>
<path d="M0 0 C-0.33 1.32 -0.66 2.64 -1 4 C-6.445 5.485 -6.445 5.485 -12 7 C-8.85595666 3.85595666 -4.70527539 0 0 0 Z " fill="#54B562" transform="translate(54,11)"/>
<path d="M0 0 C0.99 0.33 1.98 0.66 3 1 C2.67 1.66 2.34 2.32 2 3 C2.185625 4.155 2.37125 5.31 2.5625 6.5 C2.706875 7.655 2.85125 8.81 3 10 C2.34 10.66 1.68 11.32 1 12 C-0.26237731 9.47524538 -0.09856404 7.68799534 -0.0625 4.875 C-0.05347656 3.96492188 -0.04445313 3.05484375 -0.03515625 2.1171875 C-0.02355469 1.41851562 -0.01195312 0.71984375 0 0 Z " fill="#5AD25A" transform="translate(5,91)"/>
<path d="M0 0 C-0.33 0.99 -0.66 1.98 -1 3 C-2.65614657 3.38218767 -4.32457024 3.71395102 -6 4 C-6.33 3.67 -6.66 3.34 -7 3 C-8.66617115 2.95936168 -10.33388095 2.957279 -12 3 C-7.87960164 0.25306776 -4.92304458 0 0 0 Z " fill="#36B656" transform="translate(83,4)"/>
<path d="M0 0 C0.99 0 1.98 0 3 0 C3 0.99 3 1.98 3 3 C4.98 3.66 6.96 4.32 9 5 C8.34 6.32 7.68 7.64 7 9 C5.83037314 7.69013727 4.66437056 6.3770374 3.5 5.0625 C2.8503125 4.33160156 2.200625 3.60070312 1.53125 2.84765625 C0 1 0 1 0 0 Z " fill="#5ABF62" transform="translate(20,140)"/>
<path d="M0 0 C3.53790403 3.69172595 3.59115883 7.09390595 4 12 C3.01 12 2.02 12 1 12 C1 9.69 1 7.38 1 5 C0.34 4.67 -0.32 4.34 -1 4 C-0.67 2.68 -0.34 1.36 0 0 Z " fill="#108E51" transform="translate(167,49)"/>
<path d="M0 0 C0.33 1.32 0.66 2.64 1 4 C-1.4375 6.75 -1.4375 6.75 -4 9 C-4.33 8.34 -4.66 7.68 -5 7 C-3.35 4.69 -1.7 2.38 0 0 Z " fill="#62BE66" transform="translate(21,37)"/>
<path d="M0 0 C1.98 0 3.96 0 6 0 C2.24532309 3.05936637 -1.08113061 5 -6 5 C-6 4.34 -6 3.68 -6 3 C-5.195625 2.87625 -4.39125 2.7525 -3.5625 2.625 C-2.716875 2.41875 -1.87125 2.2125 -1 2 C-0.67 1.34 -0.34 0.68 0 0 Z " fill="#35985C" transform="translate(123,167)"/>
<path d="M0 0 C0.66 0.33 1.32 0.66 2 1 C2 2.65 2 4.3 2 6 C0.68 6.33 -0.64 6.66 -2 7 C-2.125 4.625 -2.125 4.625 -2 2 C-1.34 1.34 -0.68 0.68 0 0 Z " fill="#49CC53" transform="translate(30,144)"/>
<path d="M0 0 C0.99 0.66 1.98 1.32 3 2 C2.67 2.99 2.34 3.98 2 5 C-0.0625 5.6875 -0.0625 5.6875 -2 6 C-2.33 4.68 -2.66 3.36 -3 2 C-2.01 1.34 -1.02 0.68 0 0 Z " fill="#37B854" transform="translate(75,105)"/>
<path d="M0 0 C1.11375 0.185625 2.2275 0.37125 3.375 0.5625 C6.82568861 1.31680657 6.82568861 1.31680657 9 0 C9 0.99 9 1.98 9 3 C6.36 3.33 3.72 3.66 1 4 C0.67 2.68 0.34 1.36 0 0 Z " fill="#3ABA59" transform="translate(66,42)"/>
<path d="M0 0 C1.98 0.99 3.96 1.98 6 3 C3 5 3 5 -1 5 C-0.67 3.35 -0.34 1.7 0 0 Z " fill="#3ABB55" transform="translate(65,131)"/>
<path d="M0 0 C1.32 0.33 2.64 0.66 4 1 C0.535 3.97 0.535 3.97 -3 7 C-3.66 6.67 -4.32 6.34 -5 6 C-4.360625 5.7525 -3.72125 5.505 -3.0625 5.25 C-0.81258459 4.18437567 -0.81258459 4.18437567 -0.25 1.875 C-0.1675 1.25625 -0.085 0.6375 0 0 Z " fill="#329C5A" transform="translate(108,107)"/>
<path d="M0 0 C1.32 0 2.64 0 4 0 C4.66 2.97 5.32 5.94 6 9 C3.70735203 6.70735203 1.80280817 4.66128825 0 2 C0 1.34 0 0.68 0 0 Z " fill="#329158" transform="translate(127,59)"/>
<path d="M0 0 C2.88437779 1.29299694 4.87219421 2.65941363 7 5 C4.6875 5.25 4.6875 5.25 2 5 C0.1875 3 0.1875 3 -1 1 C-0.67 0.67 -0.34 0.34 0 0 Z " fill="#179D52" transform="translate(137,18)"/>
<path d="M0 0 C0.33 0 0.66 0 1 0 C2.12880057 3.31114834 3.21302675 6.58978257 4 10 C3.01 10.495 3.01 10.495 2 11 C1.01 7.7 0.02 4.4 -1 1 C-0.67 0.67 -0.34 0.34 0 0 Z " fill="#2A9357" transform="translate(134,67)"/>
<path d="M0 0 C0.66 0.99 1.32 1.98 2 3 C1 5 1 5 -0.9375 5.6875 C-3 6 -3 6 -5 5 C-3.35 3.35 -1.7 1.7 0 0 Z " fill="#1AA451" transform="translate(126,122)"/>
<path d="M0 0 C2.50037734 2.17424117 3.43628586 3.73045798 4 7 C2.68 7 1.36 7 0 7 C0 4.69 0 2.38 0 0 Z " fill="#1B8C54" transform="translate(163,42)"/>
<path d="M0 0 C0 1.32 0 2.64 0 4 C-2.97 3.505 -2.97 3.505 -6 3 C-6 2.34 -6 1.68 -6 1 C-3 0 -3 0 0 0 Z " fill="#0B9351" transform="translate(167,128)"/>
<path d="M0 0 C1.65 0.33 3.3 0.66 5 1 C5 1.99 5 2.98 5 4 C2.03 3.505 2.03 3.505 -1 3 C-0.67 2.01 -0.34 1.02 0 0 Z " fill="#1A9E55" transform="translate(131,97)"/>
<path d="M0 0 C0.33 0 0.66 0 1 0 C1.33 2.31 1.66 4.62 2 7 C0.68 7.33 -0.64 7.66 -2 8 C-1.125 1.125 -1.125 1.125 0 0 Z " fill="#59D256" transform="translate(7,73)"/>
<path d="M0 0 C1.32 0 2.64 0 4 0 C4 0.99 4 1.98 4 3 C4.66 3.33 5.32 3.66 6 4 C4.68 4.33 3.36 4.66 2 5 C1.34 3.35 0.68 1.7 0 0 Z " fill="#1CA251" transform="translate(124,11)"/>
</svg>
