<svg width="100" height="100" viewBox="0 0 100 100" fill="none" xmlns="http://www.w3.org/2000/svg">
<g clip-path="url(#clip0_235_73)">
<path d="M100 50C100 22.3858 77.6142 0 50 0C22.3858 0 0 22.3858 0 50C0 77.6142 22.3858 100 50 100C77.6142 100 100 77.6142 100 50Z" fill="url(#paint0_linear_235_73)"/>
<mask id="path-2-inside-1_235_73" fill="white">
<path d="M84.0616 31.0266C79.8602 23.5149 73.2932 17.603 65.3829 14.2111C57.4727 10.8191 48.663 10.1375 40.3251 12.2722C31.9872 14.407 24.589 19.2384 19.282 26.0143C13.9751 32.7903 11.0571 41.1306 10.9824 49.7371C10.9077 58.3436 13.6804 66.7334 18.8689 73.6005C24.0574 80.4675 31.3707 85.4266 39.6702 87.7058C47.9698 89.985 56.79 89.4564 64.758 86.2023C72.7259 82.9482 79.3945 77.1512 83.7258 69.7136L63.2774 57.8056C61.5726 60.7332 58.9477 63.015 55.8114 64.2958C52.6751 65.5767 49.2033 65.7847 45.9365 64.8876C42.6696 63.9905 39.791 62.0385 37.7488 59.3355C35.7065 56.6325 34.6151 53.3302 34.6445 49.9426C34.6739 46.5549 35.8225 43.272 37.9114 40.6049C40.0003 37.9378 42.9123 36.0361 46.1942 35.1958C49.4761 34.3555 52.9438 34.6238 56.0574 35.9589C59.171 37.2941 63.5398 41.1216 63.4096 42.5778C63.2794 44.0339 84.0616 31.0266 84.0616 31.0266Z"/>
</mask>
<path d="M84.0616 31.0266C79.8602 23.5149 73.2932 17.603 65.3829 14.2111C57.4727 10.8191 48.663 10.1375 40.3251 12.2722C31.9872 14.407 24.589 19.2384 19.282 26.0143C13.9751 32.7903 11.0571 41.1306 10.9824 49.7371C10.9077 58.3436 13.6804 66.7334 18.8689 73.6005C24.0574 80.4675 31.3707 85.4266 39.6702 87.7058C47.9698 89.985 56.79 89.4564 64.758 86.2023C72.7259 82.9482 79.3945 77.1512 83.7258 69.7136L63.2774 57.8056C61.5726 60.7332 58.9477 63.015 55.8114 64.2958C52.6751 65.5767 49.2033 65.7847 45.9365 64.8876C42.6696 63.9905 39.791 62.0385 37.7488 59.3355C35.7065 56.6325 34.6151 53.3302 34.6445 49.9426C34.6739 46.5549 35.8225 43.272 37.9114 40.6049C40.0003 37.9378 42.9123 36.0361 46.1942 35.1958C49.4761 34.3555 52.9438 34.6238 56.0574 35.9589C59.171 37.2941 63.5398 41.1216 63.4096 42.5778C63.2794 44.0339 84.0616 31.0266 84.0616 31.0266Z" fill="#D9D9D9"/>
<path d="M83.6252 31.2707C83.9162 31.1079 84.2071 30.9452 84.498 30.7825C81.8049 25.85 78.0358 21.4964 73.5197 18.1144C71.0939 16.2953 68.4559 14.7543 65.6738 13.5327C57.7196 10.0189 48.5715 9.22674 40.0881 11.3465C31.5965 13.4299 23.8272 18.4127 18.3747 25.3037C12.8933 32.1707 9.76688 40.9006 9.6536 49.7256C9.50261 58.5493 12.3671 67.4088 17.6843 74.4955C22.9708 81.6044 30.6754 86.892 39.2412 89.268C47.7963 91.6804 57.1553 91.1639 65.4138 87.8083C73.6862 84.4881 80.8022 78.3504 85.3062 70.634L86.2287 69.0618L84.6461 68.1332C77.843 64.1415 71.0384 60.1524 64.2324 56.1658L62.5991 55.2091L61.6376 56.8507C60.1539 59.3938 57.8108 61.4184 55.0849 62.5169C52.3635 63.6269 49.2771 63.8039 46.4508 63.0146C43.6211 62.2374 41.0699 60.4992 39.3125 58.154C37.5451 55.8163 36.5828 52.8869 36.6187 49.9597C36.6422 47.0323 37.6635 44.1261 39.4745 41.8291C41.2757 39.5245 43.8547 37.844 46.6887 37.127C49.5196 36.398 52.587 36.6372 55.2698 37.7956C56.5204 38.3418 57.8647 39.2538 59.0497 40.2273C59.6442 40.7187 60.212 41.2406 60.6936 41.768C60.9316 42.0289 61.1501 42.297 61.2995 42.5219C61.3715 42.6288 61.4287 42.734 61.4441 42.7711C61.4698 42.7995 61.4016 42.8016 61.4176 42.3997C61.3206 42.8935 61.6632 43.9349 62.321 44.3197C62.4054 44.3777 62.5078 44.4348 62.5691 44.4647C62.6237 44.4918 62.677 44.5153 62.7285 44.5358C62.8316 44.5768 62.9274 44.6058 63.0155 44.6273C63.1919 44.67 63.3373 44.6842 63.4619 44.6895C63.7144 44.6985 63.8791 44.6712 63.9549 44.6609C64.1444 44.6318 64.2956 44.593 64.4416 44.5505C64.6518 44.4887 64.8554 44.4131 65.0307 44.3432C65.1873 44.2805 65.3483 44.2115 65.5164 44.1358C65.6614 44.0704 65.8025 44.0043 65.9532 43.9317C66.5305 43.6526 67.0682 43.3665 67.6113 43.0674C68.6754 42.4793 69.7124 41.8607 70.726 41.2322C75.4758 38.2708 79.9969 34.9693 84.3269 31.4504C84.15 31.1679 83.9732 30.8853 83.7964 30.6027C78.7409 32.922 73.749 35.4427 68.8785 37.9898C67.8425 38.5283 66.7981 39.0736 65.7743 39.5898C65.2542 39.8517 64.7458 40.1029 64.2543 40.3289C64.1267 40.3875 64.0114 40.4391 63.8998 40.4874C63.7708 40.5434 63.6568 40.5904 63.5623 40.6269C63.457 40.6681 63.3549 40.7027 63.3193 40.7123C63.2951 40.7196 63.2975 40.7156 63.3611 40.7054C63.3867 40.7029 63.4496 40.6877 63.623 40.6928C63.7081 40.6966 63.8182 40.7062 63.9637 40.7414C64.0363 40.7591 64.1178 40.7836 64.2076 40.8193C64.2943 40.8553 64.3962 40.8959 64.5708 41.0123C65.1736 41.3597 65.4914 42.3427 65.4017 42.7559C65.4011 41.1772 64.912 40.8433 64.6287 40.3047C64.306 39.8234 63.9803 39.4383 63.6499 39.0739C62.9879 38.3509 62.3063 37.7316 61.5951 37.1428C60.162 35.9792 58.6922 34.9406 56.8449 34.1223C53.3585 32.6197 49.374 32.3133 45.6998 33.2646C42.0216 34.2002 38.6784 36.3871 36.3482 39.3806C34.0053 42.3643 32.6909 46.1344 32.6703 49.9254C32.6336 53.7164 33.8908 57.5029 36.185 60.517C38.4664 63.541 41.7693 65.7725 45.4221 66.7606C49.0708 67.7643 53.0448 67.5181 56.5379 66.0748C60.0372 64.6463 63.0322 62.0305 64.9173 58.7606L62.3225 59.4455C69.1486 63.3975 75.9763 67.347 82.8054 71.294L82.1454 68.7933C78.091 75.8452 71.6453 81.4966 64.1021 84.5964C56.5724 87.7278 47.9941 88.2863 40.0992 86.1437C32.1959 84.0345 25.0278 79.237 20.0535 72.7054C15.052 66.1953 12.2778 57.9929 12.3113 49.7487C12.3099 41.5051 15.1175 33.2735 20.1894 26.725C25.233 20.1556 32.5091 15.3131 40.5621 13.1979C48.6053 11.049 57.3731 11.6431 65.0921 14.8894C67.7915 16.0177 70.3634 17.4576 72.7407 19.1731C77.1665 22.3622 80.9072 26.5147 83.6252 31.2707ZM84.498 30.7825L83.6252 31.2707L83.7964 30.6027L84.3269 31.4504L84.7548 31.2523L84.498 30.7825Z" fill="#D9D9D9" mask="url(#path-2-inside-1_235_73)"/>
</g>
<defs>
<linearGradient id="paint0_linear_235_73" x1="82" y1="11" x2="18" y2="86.5" gradientUnits="userSpaceOnUse">
<stop stop-color="#2FB97D"/>
<stop offset="1" stop-color="#1AB69D"/>
</linearGradient>
<clipPath id="clip0_235_73">
<rect width="100" height="100" fill="white"/>
</clipPath>
</defs>
</svg>
