<svg width="50" height="50" viewBox="0 0 50 50" fill="none" xmlns="http://www.w3.org/2000/svg">
<g clip-path="url(#clip0_235_72)">
<path d="M50 25C50 11.1929 38.8071 0 25 0C11.1929 0 0 11.1929 0 25C0 38.8071 11.1929 50 25 50C38.8071 50 50 38.8071 50 25Z" fill="url(#paint0_linear_235_72)"/>
<mask id="path-2-inside-1_235_72" fill="white">
<path d="M37.8077 17.7816C36.1873 14.8844 33.6544 12.6042 30.6035 11.296C27.5525 9.98775 24.1547 9.72485 20.9388 10.5482C17.723 11.3716 14.8695 13.235 12.8227 15.8484C10.7758 18.4619 9.65037 21.6787 9.62155 24.9982C9.59273 28.3177 10.6621 31.5535 12.6633 34.2021C14.6645 36.8507 17.4852 38.7634 20.6862 39.6425C23.8873 40.5215 27.2892 40.3177 30.3624 39.0626C33.4356 37.8075 36.0077 35.5716 37.6782 32.703L29.7914 28.1101C29.1338 29.2393 28.1215 30.1194 26.9118 30.6134C25.7021 31.1074 24.3631 31.1876 23.1031 30.8416C21.8431 30.4956 20.7328 29.7427 19.9452 28.7002C19.1575 27.6577 18.7365 26.384 18.7479 25.0774C18.7592 23.7708 19.2022 22.5046 20.0079 21.4759C20.8135 20.4472 21.9367 19.7138 23.2025 19.3897C24.4683 19.0656 25.8058 19.1691 27.0067 19.684C28.2076 20.199 29.8926 21.6752 29.8424 22.2369C29.7922 22.7985 37.8077 17.7816 37.8077 17.7816Z"/>
</mask>
<path d="M37.8077 17.7816C36.1873 14.8844 33.6544 12.6042 30.6035 11.296C27.5525 9.98775 24.1547 9.72485 20.9388 10.5482C17.723 11.3716 14.8695 13.235 12.8227 15.8484C10.7758 18.4619 9.65037 21.6787 9.62155 24.9982C9.59273 28.3177 10.6621 31.5535 12.6633 34.2021C14.6645 36.8507 17.4852 38.7634 20.6862 39.6425C23.8873 40.5215 27.2892 40.3177 30.3624 39.0626C33.4356 37.8075 36.0077 35.5716 37.6782 32.703L29.7914 28.1101C29.1338 29.2393 28.1215 30.1194 26.9118 30.6134C25.7021 31.1074 24.3631 31.1876 23.1031 30.8416C21.8431 30.4956 20.7328 29.7427 19.9452 28.7002C19.1575 27.6577 18.7365 26.384 18.7479 25.0774C18.7592 23.7708 19.2022 22.5046 20.0079 21.4759C20.8135 20.4472 21.9367 19.7138 23.2025 19.3897C24.4683 19.0656 25.8058 19.1691 27.0067 19.684C28.2076 20.199 29.8926 21.6752 29.8424 22.2369C29.7922 22.7985 37.8077 17.7816 37.8077 17.7816Z" fill="white"/>
<path d="M37.3714 18.0257C37.6623 17.863 37.9532 17.7003 38.2441 17.5376C37.213 15.5809 35.7506 13.84 33.981 12.4763C33.0306 11.7429 31.9928 11.1174 30.8943 10.6177C27.7542 9.18021 24.109 8.81386 20.7018 9.62251C17.292 10.4162 14.1439 12.3812 11.9153 15.1378C9.67538 17.8842 8.37162 21.4043 8.29272 24.9866C8.19837 28.5679 9.33093 32.1867 11.4787 35.0972C13.6136 38.0163 16.75 40.2063 20.2573 41.2046C23.7597 42.2179 27.6092 42.0316 31.0183 40.6685C34.4329 39.3203 37.3833 36.8037 39.2586 33.6233L40.1844 32.0642L38.5985 31.1226C35.9826 29.5693 33.3652 28.0185 30.7464 26.4703L29.1236 25.511L28.1516 27.1552C27.7026 27.9129 26.9991 28.5121 26.1853 28.8344C25.3727 29.1602 24.455 29.2072 23.6175 28.9686C22.7789 28.7336 22.0258 28.2147 21.5089 27.5187C20.989 26.8248 20.7085 25.9583 20.7221 25.0946C20.732 24.2307 21.0359 23.3752 21.571 22.7002C22.1032 22.0229 22.8632 21.5303 23.697 21.3209C24.5298 21.108 25.4312 21.1796 26.2191 21.5206C26.5182 21.6477 26.9981 21.9606 27.379 22.2777C27.5724 22.4373 27.7564 22.6087 27.8868 22.7521C27.9502 22.8209 28.0015 22.8884 28.006 22.8963C28.0078 22.8979 27.996 22.8864 27.9599 22.8065C27.9348 22.7184 27.8238 22.5901 27.8503 22.0588C27.7556 22.5278 28.0906 23.5513 28.7315 23.9245C28.9185 24.0493 29.0299 24.094 29.1254 24.1336C29.2243 24.1729 29.3158 24.2006 29.3991 24.221C29.566 24.2613 29.7006 24.2742 29.8131 24.279C30.0413 24.2868 30.1747 24.2632 30.2351 24.2552C30.3859 24.232 30.4914 24.2039 30.5851 24.1767C30.7198 24.1368 30.8295 24.095 30.9186 24.0592C31.0807 23.9935 31.22 23.9277 31.3453 23.8656C31.5943 23.7417 31.8107 23.6206 32.0272 23.4938C32.45 23.2449 32.8477 22.9839 33.2317 22.7138C35.0267 21.4443 36.6257 19.9311 38.073 18.2055C37.8962 17.9229 37.7193 17.6404 37.5425 17.3578C35.3698 17.8839 33.2998 18.6163 31.3843 19.4714C30.9778 19.6514 30.5727 19.8393 30.1902 20.0163C29.9966 20.1059 29.8096 20.192 29.6463 20.2629C29.5663 20.2977 29.4866 20.3304 29.4503 20.343C29.4312 20.35 29.423 20.3508 29.4628 20.3384C29.4909 20.3304 29.539 20.3157 29.6413 20.2998C29.6823 20.2948 29.7765 20.2759 29.9741 20.2823C30.0714 20.2865 30.1924 20.2975 30.3474 20.335C30.4248 20.3539 30.5106 20.3798 30.6045 20.4171C30.6951 20.4547 30.8012 20.4971 30.9813 20.6173C31.601 20.9761 31.9264 21.977 31.8344 22.415C31.8743 21.7212 31.7094 21.4291 31.6208 21.1948C31.5199 20.9679 31.4215 20.8099 31.3352 20.6791C31.1575 20.4147 30.9989 20.2303 30.8431 20.0579C30.5324 19.719 30.2345 19.4502 29.9244 19.1932C29.2954 18.686 28.69 18.2466 27.7942 17.8474C26.2027 17.1621 24.3842 17.0233 22.7081 17.4585C21.0301 17.8865 19.506 18.8855 18.4447 20.2517C17.3777 21.6134 16.7807 23.3328 16.7736 25.0603C16.7592 26.7877 17.3348 28.5114 18.3814 29.8817C19.4223 31.2565 20.9271 32.2687 22.5887 32.7146C24.2486 33.1676 26.054 33.0514 27.6383 32.3923C29.2255 31.74 30.5809 30.5495 31.4312 29.0651L28.8364 29.75C31.4754 31.2637 34.1159 32.7748 36.7579 34.2834L36.0978 31.7827C34.6722 34.2984 32.392 36.3288 29.7066 37.4566C27.0263 38.5955 23.9575 38.8239 21.1152 38.0803C18.2704 37.3488 15.6706 35.649 13.8479 33.3071C12.0159 30.9733 10.9736 28.0115 10.9504 25.0097C10.9146 22.0088 11.8996 18.987 13.73 16.5591C15.5497 14.1241 18.2046 12.2995 21.1758 11.4739C24.1428 10.6361 27.4077 10.8044 30.3126 11.9743C31.3284 12.3809 32.3 12.9052 33.2021 13.535C34.8813 14.7058 36.3154 16.2456 37.3714 18.0257ZM38.2441 17.5376L37.3714 18.0257L37.5425 17.3578L38.073 18.2055L38.5356 18.091L38.2441 17.5376Z" fill="white" mask="url(#path-2-inside-1_235_72)"/>
</g>
<defs>
<linearGradient id="paint0_linear_235_72" x1="41" y1="5.5" x2="9" y2="43.25" gradientUnits="userSpaceOnUse">
<stop stop-color="#2FB97D"/>
<stop offset="1" stop-color="#1AB69D"/>
</linearGradient>
<clipPath id="clip0_235_72">
<rect width="50" height="50" fill="white"/>
</clipPath>
</defs>
</svg>
